<svg width="256" height="256" viewBox="0 0 256 256" fill="none" xmlns="http://www.w3.org/2000/svg">
<circle cx="128" cy="128" r="128" fill="#333333"/>
<path d="M41.4474 146.735C39.6011 146.735 38.0983 146.232 36.939 145.225C35.7797 144.218 35.2 142.901 35.2 141.274V106.065H57.6132C61.6922 106.065 64.9555 106.936 67.4029 108.679C69.8932 110.422 71.1384 112.766 71.1384 115.71V118.615C71.1384 119.893 70.7734 121.113 70.0435 122.275C69.3565 123.437 68.369 124.386 67.0808 125.122V125.18C69.1418 125.838 70.7949 126.904 72.0401 128.375C73.3282 129.847 73.9723 131.493 73.9723 133.314V136.335C73.9723 139.511 72.6841 142.048 70.1079 143.946C67.5746 145.806 64.1396 146.735 59.803 146.735H41.4474ZM57.6132 122.914C58.9872 122.914 60.1036 122.527 60.9623 121.752C61.821 120.939 62.2504 119.873 62.2504 118.556V116.581C62.2504 115.496 61.7996 114.644 60.8979 114.025C59.9962 113.366 58.794 113.037 57.2912 113.037H44.088V122.914H57.6132ZM59.1589 139.763C61.0482 139.763 62.508 139.434 63.5385 138.775C64.569 138.078 65.0843 137.11 65.0843 135.87V133.314C65.0843 132.191 64.6334 131.28 63.7317 130.583C62.8301 129.886 61.6278 129.537 60.125 129.537H44.088V139.763H59.1589Z" fill="white"/>
<path d="M111.76 137.265H94.8855L90.8923 146.735H81.6179L99.2651 106.065H103.258C106.049 106.065 107.938 107.227 108.926 109.551L124.963 146.735H115.689L111.76 137.265ZM97.2685 130.525H109.377L103.387 115.884H103.323L97.2685 130.525Z" fill="white"/>
<path d="M148.026 147.2C143.303 147.2 139.61 146.019 136.948 143.656C134.286 141.254 132.955 137.923 132.955 133.663H141.714C141.714 135.677 142.272 137.265 143.389 138.427C144.548 139.55 146.137 140.112 148.155 140.112H155.304C157.193 140.112 158.717 139.763 159.876 139.066C161.079 138.33 161.68 137.362 161.68 136.161V134.185C161.68 132.288 160.134 131.106 157.043 130.641L145.192 128.84C141.328 128.259 138.386 127.155 136.368 125.528C134.393 123.863 133.406 121.752 133.406 119.196V115.942C133.406 113.889 134.007 112.088 135.209 110.539C136.454 108.95 138.193 107.73 140.426 106.878C142.702 106.026 145.321 105.6 148.283 105.6H155.561C158.352 105.6 160.821 106.123 162.968 107.169C165.115 108.215 166.768 109.686 167.927 111.584C169.129 113.444 169.73 115.613 169.73 118.092H160.971C160.971 116.465 160.478 115.167 159.49 114.199C158.502 113.192 157.193 112.688 155.561 112.688H148.283C146.48 112.688 145.02 113.037 143.904 113.734C142.83 114.431 142.294 115.361 142.294 116.523V118.092C142.294 120.028 143.775 121.229 146.738 121.694L158.524 123.553C162.431 124.173 165.415 125.277 167.476 126.865C169.537 128.414 170.568 130.428 170.568 132.907V136.742C170.568 138.795 169.924 140.615 168.636 142.203C167.39 143.791 165.63 145.031 163.354 145.922C161.079 146.774 158.438 147.2 155.432 147.2H148.026Z" fill="white"/>
<path d="M189.455 146.735C187.608 146.735 186.106 146.232 184.946 145.225C183.787 144.218 183.207 142.901 183.207 141.274V106.065H217.6V113.037H192.095V122.449H215.668V129.421H192.095V139.763H217.6V146.735H189.455Z" fill="white"/>
</svg>
