<svg width="512" height="512" viewBox="0 0 512 512" fill="none" xmlns="http://www.w3.org/2000/svg">
<circle cx="256" cy="256" r="256" fill="#333333"/>
<path d="M82.8947 293.47C79.2021 293.47 76.1965 292.463 73.8779 290.449C71.5593 288.435 70.4 285.801 70.4 282.547V212.13H115.226C123.384 212.13 129.911 213.873 134.806 217.359C139.786 220.845 142.277 225.531 142.277 231.419V237.229C142.277 239.785 141.547 242.226 140.087 244.55C138.713 246.874 136.738 248.772 134.162 250.244V250.36C138.284 251.677 141.59 253.807 144.08 256.751C146.656 259.695 147.945 262.987 147.945 266.628V272.67C147.945 279.023 145.368 284.097 140.216 287.893C135.149 291.611 128.279 293.47 119.606 293.47H82.8947ZM115.226 245.828C117.974 245.828 120.207 245.053 121.925 243.504C123.642 241.877 124.501 239.747 124.501 237.113V233.162C124.501 230.993 123.599 229.289 121.796 228.049C119.992 226.732 117.588 226.074 114.582 226.074H88.176V245.828H115.226ZM118.318 279.526C122.096 279.526 125.016 278.868 127.077 277.551C129.138 276.156 130.169 274.22 130.169 271.741V266.628C130.169 264.381 129.267 262.561 127.463 261.166C125.66 259.772 123.256 259.075 120.25 259.075H88.176V279.526H118.318Z" fill="white"/>
<path d="M223.52 274.53H189.771L181.785 293.47H163.236L198.53 212.13H206.516C212.098 212.13 215.877 214.454 217.852 219.102L249.926 293.47H231.377L223.52 274.53ZM194.537 261.05H218.754L206.774 231.768H206.645L194.537 261.05Z" fill="white"/>
<path d="M296.051 294.4C286.605 294.4 279.22 292.037 273.896 287.312C268.572 282.509 265.91 275.847 265.91 267.325H283.428C283.428 271.353 284.544 274.53 286.777 276.854C289.096 279.1 292.273 280.223 296.309 280.223H310.607C314.386 280.223 317.434 279.526 319.753 278.132C322.157 276.66 323.359 274.723 323.359 272.322V268.371C323.359 264.575 320.268 262.212 314.085 261.283L290.384 257.68C282.655 256.518 276.773 254.311 272.737 251.057C268.786 247.726 266.811 243.504 266.811 238.391V231.884C266.811 227.778 268.014 224.176 270.418 221.077C272.908 217.901 276.386 215.461 280.852 213.756C285.403 212.052 290.641 211.2 296.567 211.2H311.122C316.704 211.2 321.642 212.246 325.936 214.337C330.229 216.429 333.536 219.373 335.854 223.169C338.259 226.887 339.461 231.225 339.461 236.183H321.943C321.943 232.93 320.955 230.334 318.98 228.398C317.005 226.384 314.386 225.377 311.122 225.377H296.567C292.96 225.377 290.04 226.074 287.808 227.468C285.661 228.863 284.587 230.722 284.587 233.046V236.183C284.587 240.057 287.55 242.458 293.475 243.388L317.048 247.106C324.862 248.346 330.831 250.553 334.953 253.73C339.075 256.828 341.135 260.857 341.135 265.815V273.484C341.135 277.59 339.847 281.231 337.271 284.407C334.781 287.583 331.26 290.062 326.709 291.844C322.157 293.548 316.876 294.4 310.865 294.4H296.051Z" fill="white"/>
<path d="M378.909 293.47C375.217 293.47 372.211 292.463 369.893 290.449C367.574 288.435 366.415 285.801 366.415 282.547V212.13H435.2V226.074H384.191V244.898H431.336V258.842H384.191V279.526H435.2V293.47H378.909Z" fill="white"/>
</svg>
